<svg id="Capa_1" enable-background="new 0 0 510 510" height="512" viewBox="0 0 510 510" width="512" xmlns="http://www.w3.org/2000/svg"><g><path d="m510 375h-362.383l-10.436-60h309.944l51.429-240h-403.112l-7.825-45h-87.617v30h62.383c8.205 47.17 46.111 265.138 60 345h80.117 225 82.5zm-391.079-165h61.079v75h-48.035zm181.079-30v-75h60v75zm60 30v75h-60v-75zm-90-30h-60v-75h60zm0 30v75h-60v-75zm120 75v-75h48.945l-16.071 75zm55.374-105h-55.374v-75h71.445zm-265.374-75v75h-66.297l-13.043-75z"/><circle cx="202.5" cy="442.5" r="37.5"/><circle cx="427.5" cy="442.5" r="37.5"/></g></svg>